<svg version="1.1" viewBox="0 0 300 282" xmlns="http://www.w3.org/2000/svg">
  <defs>
    <clipPath id="clip-1">
      <rect x="0" y="0" transform="scale(0.14648,0.14649)" width="2048" height="1925" fill="none"/>
    </clipPath>
  </defs>
  <g clip-path="url(#clip-1)">
    <path d="M138.48369,5.79612c72.90645,-4.47353 135.63984,50.99517 140.13252,123.90484c4.49268,72.90982 -50.95459,135.66178 -123.8584,140.17524c-72.93237,4.51493 -135.71016,-50.96363 -140.20478,-123.90069c-4.49468,-72.93751 50.99638,-135.70414 123.93066,-140.17939z" fill="#be413c"/>
    <path d="M141.89561,18.65258c65.87344,-2.58517 121.38076,48.70455 124.00137,114.58121c2.62061,65.87725 -48.63574,121.4144 -114.50684,124.07033c-65.92192,2.65886 -121.50791,-48.64756 -124.13071,-114.57535c-2.6228,-65.92735 48.71162,-121.48897 114.63618,-124.07619z" fill="#f2e4c5"/>
    <path d="M90.52808,45.97962l17.12227,-0.00674c4.16177,-0.00059 8.87769,-0.20773 12.96943,0.20363c12.26558,1.23274 22.94912,9.31069 25.74155,21.61219c2.44629,10.7787 0.26807,21.14824 -7.56592,29.1714c-5.35488,4.8983 -12.20215,7.85205 -19.4395,8.38587c-3.26221,0.27072 -8.15288,0.13258 -11.52437,0.13228l-17.2916,-0.00762z" fill="#641323"/>
    <path d="M106.99937,60.31533c6.38687,0.0731 13.74858,-1.19348 18.74736,3.56844c6.1144,5.82473 6.32109,16.83884 0.60352,22.98981c-5.44834,5.15335 -12.19131,4.0923 -19.36362,4.06622z" fill="#f2e4c5"/>
    <path d="M154.28906,45.99574l17.53857,-0.01538c9.57715,-0.02725 19.78418,-0.71943 26.60742,7.62748c5.9209,7.24322 5.57666,20.91239 -1.72412,27.16532c-1.16162,0.99513 -2.47412,1.87321 -3.68262,2.84564c3.78516,7.30168 8.39502,14.59339 12.43066,21.83749l-8.69385,0.00703l-9.99463,0.00601c-3.17139,-5.46948 -6.77344,-12.63214 -9.68262,-18.29572l-6.45996,0.02754l-0.01318,18.25543l-16.35059,0.00806z" fill="#641323"/>
    <path d="M170.62646,59.79001c3.20361,-0.01934 7.18652,-0.28889 10.28467,0.2653c5.44775,0.97433 6.09375,7.82832 3.03369,11.51117c-2.89453,2.5169 -9.39111,1.84157 -13.30811,1.82633z" fill="#f2e4c5"/>
    <path d="M68.85513,171.59663l12.61963,0.02197c7.79106,9.49131 15.47754,19.32835 23.21616,28.89731l0.02622,-28.91489l13.90181,0.01465l0.01479,51.39285l-12.81665,0.00293c-2.65825,-3.11592 -5.55908,-6.9687 -8.14731,-10.23404c-4.93052,-6.24502 -9.89355,-12.46513 -14.88867,-18.65888l-0.00659,28.87973l-13.92949,0.01758c0.04951,-17.08847 -0.17988,-34.35419 0.01011,-51.41922z" fill="#641323"/>
    <path d="M128.0811,171.60982l13.89287,0.0293l-0.00967,19.72535c-0.00132,6.19961 -1.35205,16.61822 5.74321,19.59497c3.51123,1.41952 8.81689,1.39022 11.58545,-1.50302c3.13916,-3.27999 3.12305,-8.01612 3.06006,-12.24979c-0.0293,-1.9469 -0.01465,-3.91577 -0.02051,-5.86853l0.02637,-19.72535l14.02295,0.01611l-0.00293,11.74438l0.01318,11.51732c0.00439,8.13185 -0.04541,16.83503 -6.15674,22.71528c-11.70996,11.26975 -38.00303,7.72753 -41.33979,-10.14468c-1.1083,-5.93592 -0.81782,-10.93281 -0.82061,-16.73395z" fill="#641323"/>
    <path d="M187.19678,171.61714l39.41455,0.00146l0.00732,11.50267h-15.37061l-0.01025,30.24651l0.00439,9.66271l-13.87061,-0.01318c0.14063,-13.22983 -0.03223,-26.65449 -0.0498,-39.90337l-15.30762,0.00439l-0.01318,-11.49828z" fill="#641323"/>
    <path d="M144.89194,120.04484c9.63442,-0.91119 18.18911,6.14438 19.12954,15.77618c0.94043,9.63195 -6.08936,18.20958 -15.71777,19.1779c-9.66899,0.97418 -18.29048,-6.09266 -19.23486,-15.76519c-0.94424,-9.67311 6.14766,-18.27375 15.8231,-19.18889z" fill="#be413c"/>
  </g>
</svg>